<?xml version="1.0" encoding="UTF-8" standalone="no"?>
<!-- Generator: Adobe Illustrator 16.0.0, SVG Export Plug-In . SVG Version: 6.00 Build 0)  -->

<svg
   version="1.1"
   id="Layer_1"
   x="0px"
   y="0px"
   width="992.66602"
   height="266.36499"
   viewBox="0 0 992.66602 266.365"
   enable-background="new 0 0 1000 266.365"
   xml:space="preserve"
   sodipodi:docname="Lego_Creator.svg"
   inkscape:version="1.1.2 (b8e25be833, 2022-02-05)"
   xmlns:inkscape="http://www.inkscape.org/namespaces/inkscape"
   xmlns:sodipodi="http://sodipodi.sourceforge.net/DTD/sodipodi-0.dtd"
   xmlns="http://www.w3.org/2000/svg"
   xmlns:svg="http://www.w3.org/2000/svg"><defs
   id="defs109" /><sodipodi:namedview
   id="namedview107"
   pagecolor="#ffffff"
   bordercolor="#666666"
   borderopacity="1.0"
   inkscape:pageshadow="2"
   inkscape:pageopacity="0.0"
   inkscape:pagecheckerboard="0"
   showgrid="false"
   inkscape:zoom="0.977"
   inkscape:cx="500"
   inkscape:cy="133.57216"
   inkscape:window-width="1128"
   inkscape:window-height="682"
   inkscape:window-x="-6"
   inkscape:window-y="-6"
   inkscape:window-maximized="1"
   inkscape:current-layer="g104" />
<g
   id="g104">
	<path
   d="m 827.183,194.535 c -33.949,0 -61.563,-27.622 -61.563,-61.574 0,-7.932 1.5,-15.68 4.465,-23.023 l 1.032,-2.543 h -14.521 v 78.077 c 0,2.77 -2.257,5.021 -5.028,5.021 l -26.382,-0.094 c -2.179,0 -4.091,-1.403 -4.763,-3.495 l -0.272,-0.854 v -78.654 h -23.425 c -2.776,0 -5.026,-2.258 -5.026,-5.028 V 79.185 c 0,-2.778 2.25,-5.04 5.026,-5.04 l 83.438,0.007 c 2.771,0 5.028,2.254 5.028,5.032 v 8.599 l 3.017,-2.475 c 10.963,-8.967 24.801,-13.912 38.976,-13.912 27.097,0 50.716,17.36 58.781,43.202 l 3.598,11.553 V 79.185 c 0,-2.778 2.267,-5.032 5.043,-5.032 l 52.251,-0.007 c 5.526,0 10.799,1.064 15.668,3.142 4.819,2.067 9.097,4.912 12.704,8.465 3.614,3.561 6.492,7.777 8.564,12.542 2.091,4.793 3.152,9.966 3.152,15.366 0,3.692 -0.52,7.261 -1.529,10.615 -0.988,3.312 -2.404,6.457 -4.185,9.353 -1.774,2.875 -3.916,5.525 -6.377,7.874 -1.091,1.042 -2.214,2.017 -3.405,2.926 l -1.233,0.952 20.034,37.786 c 0.375,0.714 0.568,1.489 0.568,2.306 0,2.77 -2.257,5.021 -5.035,5.021 h -30.71 c -1.876,0 -3.578,-1.032 -4.452,-2.702 L 934.456,154.55 h -8.439 v 30.924 c 0,2.77 -2.251,5.021 -5.028,5.021 h -26.382 c -2.776,0 -5.043,-2.251 -5.043,-5.021 v -45.69 l -3.598,11.561 c -8.068,25.83 -31.687,43.19 -58.783,43.19 m 0,-87.191 c -13.085,0 -24.146,11.73 -24.146,25.617 0,13.89 11.061,25.62 24.146,25.62 13.08,0 24.139,-11.73 24.139,-25.62 -10e-4,-13.887 -11.059,-25.617 -24.139,-25.617 m 98.832,15.762 1.831,0.018 c 0,0 6.025,0.058 14.032,0.058 5.296,0 8.844,-3.708 8.844,-9.234 0,-5.519 -3.62,-9.226 -8.995,-9.226 L 926.015,104.7 Z m -542.773,71.422 c -33.956,0 -61.571,-27.622 -61.571,-61.575 0,-33.949 27.615,-61.572 61.571,-61.572 16.592,0 32.131,6.497 43.76,18.277 l 3.153,3.2 V 78.992 c 0,-2.77 2.258,-5.024 5.035,-5.024 l 52.252,-0.007 c 5.526,0 10.799,1.057 15.668,3.143 4.826,2.059 9.104,4.912 12.705,8.454 3.613,3.563 6.492,7.787 8.568,12.545 2.086,4.801 3.147,9.974 3.147,15.366 0,3.679 -0.513,7.253 -1.524,10.623 -0.996,3.3 -2.402,6.457 -4.183,9.353 -1.791,2.872 -3.933,5.526 -6.385,7.874 -1.09,1.043 -2.223,2.018 -3.405,2.926 l -1.232,0.953 21.243,40.059 -1.255,2.365 c -0.881,1.653 -2.567,2.688 -4.416,2.688 h -30.687 c -1.868,0 -3.578,-1.043 -4.459,-2.708 l -16.159,-33.235 h -8.469 v 30.912 c 0,2.777 -2.257,5.031 -5.027,5.031 h -26.383 c -2.777,0 -5.035,-2.254 -5.035,-5.031 v -12.238 l -3.153,3.199 c -11.642,11.792 -27.188,18.288 -43.759,18.288 m 23.439,-45.019 c 1.038,0 2.048,0.325 2.914,0.945 l 20.56,14.746 v -63.678 l -20.351,14.237 c -0.888,0.62 -1.861,0.952 -2.828,0.952 -1.407,0 -2.763,-0.682 -3.918,-1.952 -5.071,-5.598 -12.098,-8.804 -19.312,-8.804 -14.428,0 -26.165,12.108 -26.165,26.998 0,14.893 11.737,27.009 26.165,27.009 7.33,0 14.377,-3.222 19.326,-8.834 0.91,-1.026 2.223,-1.619 3.609,-1.619 m 59.918,-26.587 1.833,0.014 c 0,0 6.031,0.055 14.039,0.055 5.279,0 8.838,-3.708 8.838,-9.227 0,-5.526 -3.607,-9.234 -8.989,-9.234 l -15.72,-0.021 v 18.413 z m 219.269,67.57 c -2.567,0 -4.299,-2.164 -5.071,-4.188 l -5.028,-13.273 h -32.895 l -5.454,14.289 c -0.636,1.6 -3.666,3.173 -6.117,3.173 h -92.729 c -1.921,0 -3.644,-1.079 -4.495,-2.82 l -0.533,-1.086 V 79.185 c 0,-2.778 2.25,-5.04 5.028,-5.04 l 76.952,0.007 c 2.776,0 5.033,2.254 5.033,5.032 v 23.182 c 0,2.77 -2.257,5.028 -5.033,5.028 h -45.542 v 9.768 h 34.554 c 2.771,0 5.035,2.25 5.035,5.021 v 19.693 c 0,2.771 -2.264,5.033 -5.035,5.033 h -34.554 v 10.342 h 42.303 l 30.731,-79.87 c 0.756,-1.955 2.596,-3.229 4.701,-3.229 l 23.159,0.032 c 2.076,0 3.909,1.256 4.658,3.197 0.376,0.963 40.45,104.22 41.02,105.808 l 0.807,2.215 -0.46,1.529 c -0.663,2.135 -2.575,3.56 -4.783,3.56 H 685.868 Z M 654.07,141.39 h 10.668 l -5.418,-16.17 z"
   id="path60" />
	<path
   d="m 383.242,73.229 c 16.088,0 31.165,6.294 42.44,17.725 l 6.319,6.409 v -9.002 -9.369 c 0,-1.752 1.436,-3.177 3.182,-3.177 l 52.258,-0.007 c 5.273,0 10.316,1.006 14.947,2.982 4.609,1.974 8.691,4.7 12.126,8.091 3.448,3.391 6.198,7.416 8.173,11.96 1.984,4.563 2.986,9.483 2.986,14.627 0,3.509 -0.483,6.9 -1.435,10.082 -0.952,3.162 -2.295,6.16 -3.989,8.916 -1.702,2.75 -3.744,5.277 -6.088,7.513 -1.025,0.992 -2.129,1.93 -3.261,2.793 l -2.468,1.907 1.464,2.756 18.526,34.948 1.529,2.871 -0.794,1.5 c -0.562,1.05 -1.623,1.707 -2.786,1.707 h -30.687 c -1.183,0 -2.266,-0.657 -2.771,-1.624 l -15.682,-32.246 -1.012,-2.073 h -2.314 -5.454 -3.694 v 3.692 29.065 c 0,1.76 -1.436,3.186 -3.187,3.186 h -26.389 c -1.746,0 -3.182,-1.426 -3.182,-3.186 v -7.74 -8.74 -7.191 -56.537 -7.091 l -5.807,4.064 -17.45,12.21 -1.768,0.613 c -1.104,0 -1.999,-0.732 -2.547,-1.346 -5.41,-5.983 -12.956,-9.41 -20.682,-9.41 -15.446,0 -28.012,12.942 -28.012,28.845 0,15.915 12.566,28.856 28.012,28.856 7.856,0 15.402,-3.449 20.711,-9.457 0.57,-0.65 1.357,-0.996 2.223,-0.996 l 1.839,0.598 17.639,12.654 5.699,4.087 -6.176,6.247 c -11.289,11.438 -26.367,17.74 -42.44,17.74 -32.931,0 -59.724,-26.798 -59.724,-59.729 0,-32.931 26.795,-59.723 59.726,-59.723 m 99.222,51.609 c 6.29,0 10.691,-4.552 10.691,-11.074 0,-6.525 -4.459,-11.081 -10.836,-11.081 l -13.866,-0.015 -3.694,-0.014 v 3.708 14.727 3.665 l 3.65,0.029 c 0,0.001 6.039,0.055 14.055,0.055 M 827.183,73.243 c 26.273,0 49.192,16.837 57.014,41.903 l 5.561,17.815 -5.561,17.825 c -7.821,25.064 -30.74,41.902 -57.014,41.902 -32.931,0 -59.724,-26.795 -59.724,-59.728 0,-7.698 1.464,-15.208 4.336,-22.338 l 2.055,-5.075 h -5.476 -9.933 -3.693 v 3.694 76.23 c 0,1.748 -1.429,3.174 -3.174,3.174 l -26.39,-0.094 c -1.372,0 -2.574,-0.895 -3.008,-2.219 l -0.181,-0.566 v -3.199 -73.326 -3.694 h -3.692 -21.579 c -1.751,0 -3.18,-1.425 -3.18,-3.181 V 79.185 c 0,-1.758 1.429,-3.192 3.18,-3.192 L 780.162,76 c 1.753,0 3.188,1.427 3.188,3.185 v 4.7 7.798 l 6.024,-4.941 c 10.634,-8.701 24.052,-13.499 37.809,-13.499 m 0,87.185 c 14.09,0 25.979,-12.573 25.979,-27.467 0,-14.882 -11.889,-27.463 -25.979,-27.463 -14.089,0 -25.985,12.581 -25.985,27.463 -10e-4,14.893 11.896,27.467 25.985,27.467 M 946.855,75.992 c 5.281,0 10.31,1.013 14.94,2.994 4.611,1.973 8.701,4.689 12.135,8.08 3.447,3.391 6.196,7.416 8.166,11.96 1.99,4.567 2.994,9.494 2.994,14.634 0,3.509 -0.491,6.899 -1.443,10.084 -0.951,3.16 -2.295,6.161 -3.997,8.906 -1.688,2.749 -3.735,5.284 -6.066,7.513 -1.04,0.992 -2.136,1.938 -3.261,2.803 l -2.475,1.905 1.464,2.756 19.297,36.395 0.361,1.45 c 0,1.748 -1.436,3.174 -3.188,3.174 h -30.703 c -1.184,0 -2.271,-0.656 -2.783,-1.616 l -15.67,-32.246 -1.017,-2.081 h -2.31 -5.438 -3.694 v 3.693 29.076 c 0,1.748 -1.436,3.174 -3.182,3.174 h -26.389 c -1.761,0 -3.18,-1.426 -3.18,-3.174 V 151.891 138.267 114.046 79.185 c 0,-1.758 1.419,-3.185 3.18,-3.185 l 52.259,-0.008 m -4.977,49.037 c 6.291,0 10.684,-4.56 10.684,-11.081 0,-6.521 -4.451,-11.073 -10.835,-11.073 l -13.857,-0.022 -3.701,-0.006 v 3.701 14.73 3.662 l 3.658,0.033 c -10e-4,-0.001 6.044,0.056 14.051,0.056 M 538.565,75.992 615.526,76 c 1.759,0 3.187,1.427 3.187,3.185 v 23.182 c 0,1.756 -1.428,3.181 -3.187,3.181 h -43.696 -3.692 v 3.694 6.075 3.693 h 3.692 32.716 c 1.745,0 3.181,1.425 3.181,3.174 v 19.693 c 0,1.762 -1.436,3.186 -3.181,3.186 h -32.716 -3.692 v 3.695 6.646 3.693 h 3.692 39.186 2.532 l 0.91,-2.361 30.292,-78.688 C 645.227,76.808 646.393,76 647.707,76 l 23.172,0.032 c 1.304,0 2.459,0.798 2.943,2.024 0.374,0.974 40.282,103.801 40.982,105.692 l 0.591,1.768 -0.266,0.873 c -0.404,1.348 -1.617,2.258 -3.01,2.258 H 685.86 c -1.616,0 -2.807,-1.609 -3.362,-3.059 -0.224,-0.574 -4.118,-10.85 -4.551,-12.004 l -0.903,-2.398 h -2.559 -30.345 -2.546 l -0.9,2.383 c -0.44,1.176 -4.819,12.633 -4.993,13.069 -0.267,0.667 -2.468,2.009 -4.399,2.009 h -45.376 -47.361 c -1.204,0 -2.286,-0.678 -2.835,-1.785 l -0.345,-0.711 V 180.654 79.185 c 10e-4,-1.758 1.436,-3.193 3.18,-3.193 m 112.957,67.245 h 5.086 5.563 5.137 l -1.63,-4.866 -2.829,-8.437 -3.556,-10.607 -3.457,10.644 -2.748,8.429 -1.566,4.837 M 383.242,69.536 c -34.973,0 -63.418,28.456 -63.418,63.418 0,34.973 28.445,63.421 63.418,63.421 17.076,0 33.199,-6.813 45.066,-18.839 v 7.74 c 0,3.799 3.081,6.879 6.875,6.879 h 26.389 c 3.795,0 6.881,-3.08 6.881,-6.879 v -29.065 h 5.454 l 15.683,32.243 c 1.155,2.192 3.441,3.701 6.097,3.701 h 30.687 c 2.627,0 4.893,-1.5 6.039,-3.672 1.127,2.283 3.449,3.855 6.153,3.855 h 92.737 c 2.891,0 6.83,-1.8 7.834,-4.343 0.106,-0.296 4.559,-11.929 5.005,-13.118 h 30.345 c 0.438,1.172 4.429,11.701 4.586,12.082 1.074,2.84 3.499,5.379 6.789,5.379 h 26.259 c 3.095,0 5.684,-2.052 6.543,-4.865 0.889,2.762 3.454,4.771 6.521,4.771 l 26.373,0.094 c 3.812,0 6.884,-3.074 6.884,-6.867 v -76.23 h 9.933 c -2.965,7.33 -4.609,15.337 -4.609,23.72 0,35.031 28.395,63.421 63.418,63.421 28.424,0 52.496,-18.713 60.54,-44.491 v 33.581 c 0,3.793 3.08,6.867 6.875,6.867 h 26.389 c 3.794,0 6.876,-3.074 6.876,-6.867 v -29.076 h 5.438 l 15.685,32.242 c 1.14,2.197 3.439,3.701 6.095,3.701 h 30.703 c 3.803,0 6.881,-3.074 6.881,-6.867 0,-1.148 -0.28,-2.219 -0.778,-3.156 l -19.317,-36.428 c 1.24,-0.953 2.431,-1.962 3.563,-3.048 2.567,-2.46 4.805,-5.229 6.674,-8.245 1.867,-3.026 3.332,-6.316 4.378,-9.786 1.068,-3.532 1.603,-7.279 1.603,-11.149 0,-5.659 -1.111,-11.074 -3.297,-16.105 -2.164,-4.979 -5.187,-9.396 -8.968,-13.119 -3.766,-3.716 -8.238,-6.692 -13.273,-8.849 -5.093,-2.179 -10.605,-3.29 -16.391,-3.29 l -52.258,0.007 c -3.795,0 -6.875,3.081 -6.875,6.879 v 34.861 c -8.044,-25.783 -32.116,-44.496 -60.54,-44.496 -15.229,0 -29.208,5.381 -40.139,14.334 v -4.7 c 0,-3.799 -3.079,-6.879 -6.882,-6.879 l -83.438,-0.007 c -3.795,0 -6.873,3.08 -6.873,6.886 v 23.182 c 0,3.795 3.078,6.875 6.873,6.875 h 21.579 v 73.326 c -0.283,-0.811 -40.861,-105.392 -41.042,-105.85 -0.995,-2.565 -3.469,-4.379 -6.383,-4.379 l -23.166,-0.033 c -2.936,0 -5.424,1.833 -6.413,4.426 l -30.284,78.672 H 571.83 v -6.646 h 32.716 c 3.795,0 6.873,-3.082 6.873,-6.881 v -19.693 c 0,-3.787 -3.078,-6.867 -6.873,-6.867 H 571.83 v -6.075 h 43.696 c 3.801,0 6.881,-3.08 6.881,-6.875 V 79.185 c 0,-3.799 -3.08,-6.879 -6.881,-6.879 l -76.961,-0.007 c -3.795,0 -6.874,3.08 -6.874,6.886 v 101.468 c -3.593,-6.788 -18.525,-34.948 -18.525,-34.948 1.232,-0.953 2.425,-1.973 3.549,-3.056 2.575,-2.452 4.813,-5.229 6.672,-8.237 1.87,-3.03 3.342,-6.323 4.387,-9.797 1.061,-3.531 1.595,-7.275 1.595,-11.146 0,-5.652 -1.103,-11.066 -3.29,-16.106 -2.164,-4.97 -5.187,-9.388 -8.966,-13.119 -3.773,-3.708 -8.238,-6.687 -13.281,-8.844 -5.095,-2.178 -10.604,-3.286 -16.39,-3.286 l -52.258,0.007 c -3.794,0 -6.875,3.073 -6.875,6.871 v 9.369 C 416.448,76.334 400.354,69.536 383.242,69.536 m 23.735,49.023 c 1.341,0 2.683,-0.437 3.881,-1.285 l 17.45,-12.206 v 56.537 l -17.631,-12.658 c -1.219,-0.861 -2.619,-1.284 -3.996,-1.284 -1.854,0 -3.687,0.769 -4.992,2.247 -4.603,5.213 -11.146,8.207 -17.941,8.207 -13.404,0 -24.318,-11.287 -24.318,-25.163 0,-13.873 10.914,-25.151 24.318,-25.151 6.918,0 13.418,3.191 17.941,8.191 1.565,1.731 3.433,2.565 5.288,2.565 m 75.487,2.585 c -7.993,0 -14.01,-0.054 -14.01,-0.054 v -14.727 c 0,0 7.69,0.014 13.866,0.014 4.811,0 7.141,3.355 7.141,7.387 -0.001,4.026 -2.331,7.38 -6.997,7.38 m 459.414,0.191 c -7.993,0 -14.016,-0.058 -14.016,-0.058 v -14.73 c 0,0 7.696,0.021 13.864,0.021 4.82,0 7.143,3.354 7.143,7.38 0,4.032 -2.322,7.387 -6.991,7.387 m -114.695,35.4 c -12.19,0 -22.291,-10.836 -22.291,-23.774 0,-12.927 10.101,-23.771 22.291,-23.771 12.19,0 22.283,10.844 22.283,23.771 0,12.938 -10.093,23.774 -22.283,23.774 m -170.575,-17.191 2.741,-8.437 2.821,8.437 z"
   id="path62" />
	<path
   fill="#ffffff"
   d="m 985.833,183.653 -21.079,-39.721 c 2.618,-1.508 5.026,-3.307 7.241,-5.42 2.201,-2.115 4.107,-4.463 5.707,-7.064 1.604,-2.593 2.858,-5.377 3.745,-8.368 0.9,-2.975 1.356,-6.124 1.356,-9.418 0,-4.855 -0.939,-9.429 -2.807,-13.721 -1.868,-4.299 -4.431,-8.043 -7.677,-11.243 -3.253,-3.204 -7.054,-5.738 -11.427,-7.607 -4.371,-1.861 -9.046,-2.799 -14.045,-2.799 h -51.285 c -1.023,0 -1.859,0.834 -1.859,1.861 v 104.343 c 0,1.027 0.843,1.861 1.868,1.861 h 24.441 c 1.023,0 1.859,-0.834 1.859,-1.869 V 150.41 H 936.9 l 17.091,34.869 c 0.303,0.621 0.93,1.064 1.672,1.064 l 28.505,0.006 c 1.023,0 1.859,-0.836 1.859,-1.861 l -0.194,-0.835 m -43.955,-56.456 c -8.621,0 -20.005,0.072 -20.005,0.072 v -26.707 h 20.156 c 8.831,0 12.834,7.373 12.834,13.39 0,6.013 -3.911,13.245 -12.985,13.245"
   id="path64" />
	<path
   fill="#ffffff"
   d="m 526.418,183.466 -21.079,-39.72 c 2.618,-1.509 5.035,-3.315 7.242,-5.422 2.201,-2.113 4.105,-4.462 5.714,-7.063 1.593,-2.593 2.85,-5.385 3.745,-8.368 0.9,-2.98 1.347,-6.125 1.347,-9.425 0,-4.849 -0.936,-9.422 -2.806,-13.714 -1.867,-4.299 -4.422,-8.043 -7.675,-11.243 -3.245,-3.207 -7.055,-5.739 -11.426,-7.607 -4.366,-1.868 -9.04,-2.799 -14.039,-2.799 l -51.285,-0.007 c -1.024,0 -1.861,0.839 -1.861,1.868 v 104.336 c 0,1.032 0.844,1.868 1.869,1.868 h 24.433 c 1.031,0 1.863,-0.836 1.863,-1.868 v -34.079 h 15.047 l 17.097,34.861 c 0.304,0.628 0.932,1.071 1.668,1.071 l 28.487,0.007 c 1.023,0 1.861,-0.836 1.861,-1.86 l -0.202,-0.836 m -43.954,-56.461 c -8.621,0 -20.004,0.075 -20.004,0.075 v -26.705 h 20.163 c 8.829,0 12.826,7.373 12.826,13.385 -0.001,6.014 -3.904,13.245 -12.985,13.245"
   id="path66" />
	<path
   fill="#ffffff"
   d="M 712.445,184.003 712.113,183.079 671.959,79.49 c -0.266,-0.7 -0.944,-1.204 -1.744,-1.204 h -21.736 c -0.793,0 -1.465,0.498 -1.738,1.19 l -31.626,81.916 h -49.28 v -18.631 h 37.724 c 1.031,0 1.867,-0.833 1.867,-1.861 v -17.735 c 0,-1.028 -0.836,-1.861 -1.86,-1.861 l -37.73,-0.008 V 103.25 h 48.717 c 1.024,0 1.869,-0.837 1.869,-1.873 l -0.007,-21.22 c 0,-1.027 -0.838,-1.865 -1.862,-1.865 H 539.55 c -1.025,0 -1.869,0.838 -1.869,1.873 v 104.328 c 0,1.031 0.844,1.861 1.869,1.861 h 92.504 c 1.32,0 1.501,-0.472 1.774,-1.146 0.072,-0.17 5.246,-13.844 6.17,-16.318 h 38.645 c 0.915,2.475 6.081,16.105 6.145,16.275 0.276,0.695 0.946,1.189 1.731,1.189 h 24.146 c 1.023,0 1.861,-0.83 1.861,-1.861 l -0.081,-0.49 m -64.292,-38.471 c 0.57,-1.646 4.928,-14.613 8.044,-23.854 1.018,-3.026 5.295,-3.019 6.313,0.008 l 7.977,23.847 h -22.334 z"
   id="path68" />
	<path
   fill="#ffffff"
   d="m 405.49,154.595 c -5.685,6.031 -13.562,9.486 -21.743,9.486 -16.701,0 -30.284,-13.961 -30.284,-31.127 0,-17.162 13.583,-31.133 30.284,-31.133 8.333,0 16.304,3.553 22.017,9.776 l 0.021,0.021 1.342,0.577 1.089,-0.35 18.735,-13.11 0.765,-1.483 -0.397,-1.139 -0.36,-0.426 C 416.015,82.847 400.181,75.51 383.242,75.51 c -31.676,0 -57.452,25.775 -57.452,57.445 0,31.676 25.775,57.448 57.452,57.448 16.831,0 32.708,-7.351 43.393,-19.798 l 0.641,-1.44 -0.801,-1.521 -18.525,-13.288 -1.089,-0.356 -1.371,0.595"
   id="path70" />
	<path
   fill="#ffffff"
   d="m 781.05,101.381 c 0,1.035 -0.83,1.866 -1.861,1.866 l -26.743,0.006 v 81.244 c 0,1.024 -0.821,1.861 -1.859,1.861 h -24.434 c -1.025,0 -1.863,-0.837 -1.863,-1.861 V 103.253 H 697.7 c -1.024,0 -1.862,-0.837 -1.862,-1.861 V 80.154 c 0,-1.027 0.831,-1.857 1.862,-1.857 h 81.481 c 1.031,0 1.859,0.837 1.859,1.865 l 0.01,21.219"
   id="path72" />
	<path
   fill="#ffffff"
   d="m 827.183,75.541 c -15.633,0 -29.793,6.25 -40.146,16.376 v 10.446 c 0,3.798 -3.08,6.878 -6.875,6.878 h -5.272 c -3.291,7.232 -5.137,15.261 -5.137,23.727 0,31.712 25.718,57.426 57.43,57.426 31.713,0 57.424,-25.714 57.424,-57.426 -10e-4,-31.713 -25.711,-57.427 -57.424,-57.427 m 0,87.188 c -15.617,0 -28.278,-13.324 -28.278,-29.761 0,-16.437 12.661,-29.762 28.278,-29.762 15.617,0 28.279,13.325 28.279,29.762 0,16.437 -12.662,29.761 -28.279,29.761"
   id="path74" />
	<path
   fill="#ffffff"
   d="m 985.833,183.653 -21.079,-39.721 c 2.618,-1.508 5.026,-3.307 7.241,-5.42 2.201,-2.115 4.107,-4.463 5.707,-7.064 1.604,-2.593 2.858,-5.377 3.745,-8.368 0.9,-2.975 1.356,-6.124 1.356,-9.418 0,-4.855 -0.939,-9.429 -2.807,-13.721 -1.868,-4.299 -4.431,-8.043 -7.677,-11.243 -3.253,-3.204 -7.054,-5.738 -11.427,-7.607 -4.371,-1.861 -9.046,-2.799 -14.045,-2.799 h -51.285 c -1.023,0 -1.859,0.834 -1.859,1.861 v 104.343 c 0,1.027 0.843,1.861 1.868,1.861 h 24.441 c 1.023,0 1.859,-0.834 1.859,-1.869 V 150.41 H 936.9 l 17.091,34.869 c 0.303,0.621 0.93,1.064 1.672,1.064 l 28.505,0.006 c 1.023,0 1.859,-0.836 1.859,-1.861 l -0.194,-0.835 m -43.955,-56.456 c -8.621,0 -20.005,0.072 -20.005,0.072 v -26.707 h 20.156 c 8.831,0 12.834,7.373 12.834,13.39 0,6.013 -3.911,13.245 -12.985,13.245"
   id="path76" />
	<path
   fill="#ffffff"
   d="m 526.418,183.466 -21.079,-39.72 c 2.618,-1.509 5.035,-3.315 7.242,-5.422 2.201,-2.113 4.105,-4.462 5.714,-7.063 1.593,-2.593 2.85,-5.385 3.745,-8.368 0.9,-2.98 1.347,-6.125 1.347,-9.425 0,-4.849 -0.936,-9.422 -2.806,-13.714 -1.867,-4.299 -4.422,-8.043 -7.675,-11.243 -3.245,-3.207 -7.055,-5.739 -11.426,-7.607 -4.366,-1.868 -9.04,-2.799 -14.039,-2.799 l -51.285,-0.007 c -1.024,0 -1.861,0.839 -1.861,1.868 v 104.336 c 0,1.032 0.844,1.868 1.869,1.868 h 24.433 c 1.031,0 1.863,-0.836 1.863,-1.868 v -34.079 h 15.047 l 17.097,34.861 c 0.304,0.628 0.932,1.071 1.668,1.071 l 28.487,0.007 c 1.023,0 1.861,-0.836 1.861,-1.86 l -0.202,-0.836 m -43.954,-56.461 c -8.621,0 -20.004,0.075 -20.004,0.075 v -26.705 h 20.163 c 8.829,0 12.826,7.373 12.826,13.385 -0.001,6.014 -3.904,13.245 -12.985,13.245"
   id="path78" />
	<path
   fill="#ffffff"
   d="m 712.445,184.003 -0.332,-0.924 -38.206,-98.535 -1.948,-5.054 c -0.266,-0.7 -0.944,-1.204 -1.744,-1.204 h -1.544 -20.192 c -0.793,0 -1.465,0.498 -1.738,1.19 l -31.626,81.916 h -49.28 v -18.631 h 37.724 c 1.031,0 1.867,-0.833 1.867,-1.861 v -17.735 c 0,-1.028 -0.836,-1.861 -1.86,-1.861 l -37.73,-0.008 V 103.25 h 48.717 c 1.024,0 1.869,-0.837 1.869,-1.873 l -0.007,-21.22 c 0,-1.027 -0.838,-1.865 -1.862,-1.865 H 539.55 c -1.025,0 -1.869,0.838 -1.869,1.873 v 104.328 c 0,1.031 0.844,1.861 1.869,1.861 h 92.504 c 1.32,0 1.501,-0.472 1.774,-1.146 0.072,-0.17 2.424,-6.486 3.37,-8.931 0.945,-2.454 1.876,-4.913 2.8,-7.388 h 38.645 c 0.915,2.475 1.838,4.934 2.763,7.388 0.879,2.318 3.318,8.718 3.382,8.888 0.276,0.695 0.946,1.189 1.731,1.189 h 24.146 c 1.023,0 1.861,-0.83 1.861,-1.861 l -0.081,-0.49 m -64.292,-38.471 c 0.57,-1.646 4.928,-14.613 8.044,-23.854 1.018,-3.026 5.295,-3.019 6.313,0.008 l 7.977,23.847 h -22.334 z"
   id="path80" />
	<path
   fill="#ffffff"
   d="m 405.49,154.595 c -5.685,6.031 -13.562,9.486 -21.743,9.486 -16.701,0 -30.284,-13.961 -30.284,-31.127 0,-17.162 13.583,-31.133 30.284,-31.133 8.333,0 16.304,3.553 22.017,9.776 l 0.021,0.021 1.342,0.577 1.089,-0.35 18.735,-13.11 0.765,-1.483 -0.397,-1.139 -0.36,-0.426 C 416.015,82.847 400.181,75.51 383.242,75.51 c -31.676,0 -57.452,25.775 -57.452,57.445 0,31.676 25.775,57.448 57.452,57.448 16.831,0 32.708,-7.351 43.393,-19.798 l 0.641,-1.44 -0.801,-1.521 -18.525,-13.288 -1.089,-0.356 -1.371,0.595"
   id="path82" />
	<path
   fill="#ffffff"
   d="m 781.05,101.381 c 0,1.035 -0.83,1.866 -1.861,1.866 l -26.743,0.006 v 81.244 c 0,1.024 -0.821,1.861 -1.859,1.861 h -24.434 c -1.025,0 -1.863,-0.837 -1.863,-1.861 v -5.92 -75.324 H 697.7 c -1.024,0 -1.862,-0.837 -1.862,-1.861 V 80.154 c 0,-1.027 0.831,-1.857 1.862,-1.857 h 81.481 c 1.031,0 1.859,0.837 1.859,1.865 l 0.01,21.219"
   id="path84" />
	<path
   fill="#ffffff"
   d="m 827.183,75.541 c -15.633,0 -29.793,6.25 -40.146,16.376 v 10.446 c 0,3.798 -3.08,6.878 -6.875,6.878 h -5.272 c -3.291,7.232 -5.137,15.261 -5.137,23.727 0,31.712 25.718,57.426 57.43,57.426 31.713,0 57.424,-25.714 57.424,-57.426 -10e-4,-31.713 -25.711,-57.427 -57.424,-57.427 m 0,87.188 c -15.617,0 -28.278,-13.324 -28.278,-29.761 0,-16.437 12.661,-29.762 28.278,-29.762 15.617,0 28.279,13.325 28.279,29.762 0,16.437 -12.662,29.761 -28.279,29.761"
   id="path86" />
	
	
	<rect
   x="1.8099999"
   y="1.7819999"
   fill="#ffffff"
   width="262.806"
   height="262.80099"
   id="rect92" />
	<path
   fill="#fff200"
   d="M 1.81,264.579 H 264.623 V 1.778 H 1.81 Z M 247.129,111.015 c -0.434,8.195 -3.045,18.389 -5.333,25.206 -9.24,27.461 -19.954,44.485 -44.776,44.485 -7.3,0 -20.265,-1.939 -25.032,-14.943 l -1.133,-3.08 -2.034,2.578 c -7.763,9.826 -19.283,15.5 -31.634,15.558 -9.472,0.05 -17.075,-3.124 -21.995,-9.177 l -1.349,-1.658 -1.443,1.586 c -5.251,5.808 -14.406,9.137 -25.112,9.137 -8.404,0 -15.662,-2.855 -20.443,-8.043 l -1.299,-1.418 -1.349,1.375 C 58.88,177.976 50.52,180.678 40.002,180.43 27.247,180.126 19.471,173.01 19.225,161.378 18.835,143.44 36.2,105.707 43.377,94.233 48.045,86.576 54.458,82.86 62.999,82.86 c 5.807,0 9.782,1.215 12.141,3.716 2.15,2.272 2.576,4.194 2.763,8.805 l 0.245,5.97 3.152,-5.076 c 7.619,-12.277 20.243,-13.969 32.759,-13.969 8.701,0 16.29,3.2 19.334,8.147 l 1.125,1.825 1.629,-1.388 c 6.443,-5.483 15.547,-8.498 25.617,-8.498 10.98,0 18.972,2.733 23.741,8.119 1.075,1.226 1.797,2.084 2.792,4.173 l 1.226,2.564 1.833,-2.171 c 6.968,-8.245 16.498,-12.425 28.322,-12.425 9.349,0 16.455,2.481 21.108,7.387 5.838,6.152 6.667,14.801 6.343,20.976"
   id="path94" />
	<path
   fill="#ed1c24"
   d="M 1.81,264.579 H 264.623 V 1.774 H 1.81 Z M 254.53,121.097 c -1.189,9.563 -7.653,27.283 -11.087,34.368 -9.22,18.983 -21.527,33.573 -45.246,33.573 -12.668,0 -23.092,-4.047 -29.188,-11.813 -8.932,7.824 -19.976,11.918 -31.865,11.918 -9.169,0 -17.27,-2.641 -23.445,-7.535 -6.811,4.801 -16.008,7.48 -26.201,7.48 -8.513,0 -16.174,-2.34 -22.169,-6.654 -6.629,4.393 -15.33,6.582 -25.523,6.337 -16.981,-0.396 -28.704,-11.167 -29.036,-26.8 -0.447,-20.766 17.047,-58.772 25.286,-71.942 6.167,-10.127 15.589,-15.581 27.117,-15.581 12.523,0 17.068,3.578 19.298,8.133 9.659,-8.213 22.471,-8.678 31.589,-8.678 10.064,0 16.383,2.673 21.751,6.95 7.423,-4.454 15.928,-6.766 26.071,-6.766 12.963,0 22.587,3.016 29.303,9.656 7.842,-6.518 17.638,-9.493 28.625,-9.493 14.515,0 24.073,5.237 29.685,13.046 7.9,11.005 6.493,22.086 5.035,33.801"
   id="path96" />
	<path
   d="M 0,266.365 H 266.361 V 0 H 0 Z M 262.696,262.7 H 3.671 V 3.665 h 259.025 z"
   id="path98" />
	
	<path
   d="m 219.672,80.811 c -13.771,0 -23.273,5.457 -29.714,13.079 -1.097,-2.28 -1.919,-3.279 -3.074,-4.592 -5.273,-5.962 -13.749,-8.747 -25.126,-8.747 -11.11,0 -20.365,3.469 -26.799,8.938 -3.341,-5.429 -11.305,-9.021 -20.9,-9.021 -12.544,0 -26.208,1.775 -34.316,14.836 -0.195,-4.708 -0.627,-7.188 -3.268,-9.995 -3.217,-3.397 -8.412,-4.285 -13.482,-4.285 -9.234,0 -16.167,4.025 -21.174,12.231 -7.25,11.593 -24.824,49.702 -24.434,68.163 0.26,11.918 8.261,20.512 22.573,20.848 11.189,0.264 19.961,-2.719 25.537,-8.357 5.015,5.439 12.653,8.628 21.793,8.628 10.18,0 20.424,-3.056 26.476,-9.735 5.101,6.266 13.123,9.908 23.431,9.854 13.49,-0.065 25.329,-6.456 33.069,-16.257 4.235,11.561 15.004,16.138 26.764,16.138 25.761,0 37.08,-17.714 46.509,-45.726 2.127,-6.316 4.956,-16.842 5.424,-25.7 0.787,-14.714 -5.446,-30.3 -29.289,-30.3 M 48.246,151.237 c 13.325,-2.313 16.679,2.503 16.261,6.965 -1.255,13.365 -13.512,16.352 -24.153,16.105 -7.726,-0.184 -14.666,-3.723 -14.854,-12.683 -0.339,-15.677 15.647,-51.947 23.179,-63.966 3.469,-5.71 7.712,-8.53 14.464,-8.53 6.398,0 7.994,3.286 7.892,7.22 -0.252,10.501 -17.22,42.42 -22.789,54.889 m 43.407,-12.314 c -0.88,2.388 -2.554,7.387 -3.895,12.693 4.371,-1.104 7.647,-1.865 13.273,-1.725 6.407,0.156 10.503,2.811 10.503,8.112 0,12.83 -14.196,16.606 -24.036,16.606 -10.808,0 -20.301,-6.153 -20.301,-17.973 0,-13.859 7.502,-34.873 14.558,-48.865 8.657,-17.191 17.501,-19.473 32.73,-19.473 6.702,0 14.414,2.86 14.414,9.176 0,8.768 -7.423,12.105 -14.782,12.535 -3.145,0.169 -7.979,0.35 -10.872,0.148 0,0 -2.453,3.729 -5.064,10.38 13.634,-1.922 19.413,1.173 17.111,9.054 -3.108,10.656 -12.334,11.355 -23.639,9.332 m 67.033,-33.13 c -3.687,0 -6.096,2.333 -7.893,4.851 -3.939,5.541 -12.501,27.778 -13.843,36.906 -0.91,6.26 1.795,7.535 4.746,7.535 4.733,0 10.042,-5.014 11.853,-13.279 0,0 -9.01,-0.225 -6.529,-8.217 2.417,-7.755 6.998,-9.433 14.594,-9.75 14.962,-0.605 13.483,10.439 12.279,16.333 -3.882,19.129 -17.495,34.497 -36.755,34.497 -13.188,0 -21.369,-7.289 -21.369,-20.743 0,-9.581 4.748,-24.618 8.513,-33.419 8.022,-18.731 16.434,-31.846 37.859,-31.846 12.855,0 22.998,4.617 21.512,16.667 -1.089,8.834 -5.519,14.028 -13.555,14.656 -2.244,0.176 -11.441,-0.058 -8.39,-8.762 1.061,-3.037 1.501,-5.429 -3.022,-5.429 m 80.918,15.806 c -2.257,11.282 -7.357,24.621 -12.891,34.566 -9.018,16.22 -19.982,18.496 -29.548,18.389 -9.565,-0.121 -20.352,-3.65 -20.43,-18.411 -0.065,-10.601 4.509,-25.559 8.39,-35.363 6.767,-17.771 13.678,-32.264 35.529,-32.008 25.479,0.303 20.934,22.958 18.95,32.827 M 221.44,110.49 c -0.274,6.802 -10.244,34.017 -13.793,40.023 -1.538,2.607 -3.268,4.757 -6.385,4.757 -2.727,0 -3.931,-1.934 -4.011,-4.145 -0.194,-6.139 11.074,-36.928 14.933,-41.92 1.71,-2.644 3.622,-3.074 5.807,-3.044 3.197,0.036 3.529,2.341 3.449,4.329"
   id="path102" />
</g>
</svg>
